<mxfile host="app.diagrams.net" modified="2023-08-25T20:19:15.150Z" agent="Mozilla/5.0 (Windows NT 10.0; Win64; x64) AppleWebKit/537.36 (KHTML, like Gecko) Chrome/116.0.0.0 Safari/537.36 Edg/116.0.1938.54" etag="fX9-v61Cod1Tp86w6z3C" version="21.6.9" type="github">
  <diagram id="C5RBs43oDa-KdzZeNtuy" name="Page-1">
    <mxGraphModel dx="2545" dy="1730" grid="1" gridSize="9" guides="1" tooltips="1" connect="1" arrows="1" fold="1" page="1" pageScale="1" pageWidth="1654" pageHeight="1169" math="0" shadow="0">
      <root>
        <mxCell id="WIyWlLk6GJQsqaUBKTNV-0" />
        <mxCell id="WIyWlLk6GJQsqaUBKTNV-1" parent="WIyWlLk6GJQsqaUBKTNV-0" />
        <mxCell id="j-Y8bRtDtjEa4uRJ_ZTw-56" value="GameController" style="swimlane;fontStyle=1;align=center;verticalAlign=top;childLayout=stackLayout;horizontal=1;startSize=26;horizontalStack=0;resizeParent=1;resizeParentMax=0;resizeLast=0;collapsible=1;marginBottom=0;whiteSpace=wrap;html=1;" parent="WIyWlLk6GJQsqaUBKTNV-1" vertex="1">
          <mxGeometry x="491" y="52" width="526" height="580" as="geometry" />
        </mxCell>
        <mxCell id="WTQXXki12pfbqeDR_uI0-4" value="-&amp;nbsp;List: &amp;lt;IPlayer&amp;gt; PlayerList" style="text;strokeColor=none;fillColor=none;align=left;verticalAlign=top;spacingLeft=4;spacingRight=4;overflow=hidden;rotatable=0;points=[[0,0.5],[1,0.5]];portConstraint=eastwest;whiteSpace=wrap;html=1;" parent="j-Y8bRtDtjEa4uRJ_ZTw-56" vertex="1">
          <mxGeometry y="26" width="526" height="26" as="geometry" />
        </mxCell>
        <mxCell id="LLT-Rgq1CzMtrMIxeCo0-36" value="- Dict:&amp;lt;IPlayer, List&amp;lt;IMahjongTIle&amp;gt;&amp;gt; PlayerHandsList" style="text;strokeColor=none;fillColor=none;align=left;verticalAlign=top;spacingLeft=4;spacingRight=4;overflow=hidden;rotatable=0;points=[[0,0.5],[1,0.5]];portConstraint=eastwest;whiteSpace=wrap;html=1;" vertex="1" parent="j-Y8bRtDtjEa4uRJ_ZTw-56">
          <mxGeometry y="52" width="526" height="26" as="geometry" />
        </mxCell>
        <mxCell id="ie9PUeDw6mzHgXLe_47Y-0" value="- MahjongBoard : mahjongBoard" style="text;strokeColor=none;fillColor=none;align=left;verticalAlign=top;spacingLeft=4;spacingRight=4;overflow=hidden;rotatable=0;points=[[0,0.5],[1,0.5]];portConstraint=eastwest;whiteSpace=wrap;html=1;" parent="j-Y8bRtDtjEa4uRJ_ZTw-56" vertex="1">
          <mxGeometry y="78" width="526" height="26" as="geometry" />
        </mxCell>
        <mxCell id="LLT-Rgq1CzMtrMIxeCo0-35" value="- int _activePlayer" style="text;strokeColor=none;fillColor=none;align=left;verticalAlign=top;spacingLeft=4;spacingRight=4;overflow=hidden;rotatable=0;points=[[0,0.5],[1,0.5]];portConstraint=eastwest;whiteSpace=wrap;html=1;" vertex="1" parent="j-Y8bRtDtjEa4uRJ_ZTw-56">
          <mxGeometry y="104" width="526" height="26" as="geometry" />
        </mxCell>
        <mxCell id="j-Y8bRtDtjEa4uRJ_ZTw-58" value="" style="line;strokeWidth=1;fillColor=none;align=left;verticalAlign=middle;spacingTop=-1;spacingLeft=3;spacingRight=3;rotatable=0;labelPosition=right;points=[];portConstraint=eastwest;strokeColor=inherit;" parent="j-Y8bRtDtjEa4uRJ_ZTw-56" vertex="1">
          <mxGeometry y="130" width="526" height="8" as="geometry" />
        </mxCell>
        <mxCell id="bTUQG4hRqjsF7mNI0KwY-9" value="+ GameController() void" style="text;strokeColor=none;fillColor=none;align=left;verticalAlign=top;spacingLeft=4;spacingRight=4;overflow=hidden;rotatable=0;points=[[0,0.5],[1,0.5]];portConstraint=eastwest;whiteSpace=wrap;html=1;" parent="j-Y8bRtDtjEa4uRJ_ZTw-56" vertex="1">
          <mxGeometry y="138" width="526" height="26" as="geometry" />
        </mxCell>
        <mxCell id="j-Y8bRtDtjEa4uRJ_ZTw-59" value="+ GetMahjongBoard() mahjongBoard()" style="text;strokeColor=none;fillColor=none;align=left;verticalAlign=top;spacingLeft=4;spacingRight=4;overflow=hidden;rotatable=0;points=[[0,0.5],[1,0.5]];portConstraint=eastwest;whiteSpace=wrap;html=1;" parent="j-Y8bRtDtjEa4uRJ_ZTw-56" vertex="1">
          <mxGeometry y="164" width="526" height="26" as="geometry" />
        </mxCell>
        <mxCell id="bTUQG4hRqjsF7mNI0KwY-8" value="+ GetActivePlayer(int _id, string _name): PlayerInfo" style="text;strokeColor=none;fillColor=none;align=left;verticalAlign=top;spacingLeft=4;spacingRight=4;overflow=hidden;rotatable=0;points=[[0,0.5],[1,0.5]];portConstraint=eastwest;whiteSpace=wrap;html=1;" parent="j-Y8bRtDtjEa4uRJ_ZTw-56" vertex="1">
          <mxGeometry y="190" width="526" height="26" as="geometry" />
        </mxCell>
        <mxCell id="6L6V6qCQOdQOiq5EN29G-20" value="+ GetDealer(): PlayerInfo" style="text;strokeColor=none;fillColor=none;align=left;verticalAlign=top;spacingLeft=4;spacingRight=4;overflow=hidden;rotatable=0;points=[[0,0.5],[1,0.5]];portConstraint=eastwest;whiteSpace=wrap;html=1;" parent="j-Y8bRtDtjEa4uRJ_ZTw-56" vertex="1">
          <mxGeometry y="216" width="526" height="26" as="geometry" />
        </mxCell>
        <mxCell id="j-Y8bRtDtjEa4uRJ_ZTw-60" value="+ GetPlayerTurn(): PlayerInfo" style="text;strokeColor=none;fillColor=none;align=left;verticalAlign=top;spacingLeft=4;spacingRight=4;overflow=hidden;rotatable=0;points=[[0,0.5],[1,0.5]];portConstraint=eastwest;whiteSpace=wrap;html=1;" parent="j-Y8bRtDtjEa4uRJ_ZTw-56" vertex="1">
          <mxGeometry y="242" width="526" height="26" as="geometry" />
        </mxCell>
        <mxCell id="ie9PUeDw6mzHgXLe_47Y-1" value="+&amp;nbsp;NextPlayerTurn(): PlayerInfo" style="text;strokeColor=none;fillColor=none;align=left;verticalAlign=top;spacingLeft=4;spacingRight=4;overflow=hidden;rotatable=0;points=[[0,0.5],[1,0.5]];portConstraint=eastwest;whiteSpace=wrap;html=1;" parent="j-Y8bRtDtjEa4uRJ_ZTw-56" vertex="1">
          <mxGeometry y="268" width="526" height="26" as="geometry" />
        </mxCell>
        <mxCell id="XQg5VKVALIr8z_BU0Swp-15" value="+&amp;nbsp;NextRound(): bool" style="text;strokeColor=none;fillColor=none;align=left;verticalAlign=top;spacingLeft=4;spacingRight=4;overflow=hidden;rotatable=0;points=[[0,0.5],[1,0.5]];portConstraint=eastwest;whiteSpace=wrap;html=1;" parent="j-Y8bRtDtjEa4uRJ_ZTw-56" vertex="1">
          <mxGeometry y="294" width="526" height="26" as="geometry" />
        </mxCell>
        <mxCell id="6L6V6qCQOdQOiq5EN29G-38" value="+&amp;nbsp;ChangeWindDirection(): WindDirectionList" style="text;strokeColor=none;fillColor=none;align=left;verticalAlign=top;spacingLeft=4;spacingRight=4;overflow=hidden;rotatable=0;points=[[0,0.5],[1,0.5]];portConstraint=eastwest;whiteSpace=wrap;html=1;" parent="j-Y8bRtDtjEa4uRJ_ZTw-56" vertex="1">
          <mxGeometry y="320" width="526" height="26" as="geometry" />
        </mxCell>
        <mxCell id="XQg5VKVALIr8z_BU0Swp-21" value="+&amp;nbsp;DrawTile(): PlayerInfo" style="text;strokeColor=none;fillColor=none;align=left;verticalAlign=top;spacingLeft=4;spacingRight=4;overflow=hidden;rotatable=0;points=[[0,0.5],[1,0.5]];portConstraint=eastwest;whiteSpace=wrap;html=1;" parent="j-Y8bRtDtjEa4uRJ_ZTw-56" vertex="1">
          <mxGeometry y="346" width="526" height="26" as="geometry" />
        </mxCell>
        <mxCell id="bTUQG4hRqjsF7mNI0KwY-7" value="+&amp;nbsp;CheckAvailbleTile(): bool" style="text;strokeColor=none;fillColor=none;align=left;verticalAlign=top;spacingLeft=4;spacingRight=4;overflow=hidden;rotatable=0;points=[[0,0.5],[1,0.5]];portConstraint=eastwest;whiteSpace=wrap;html=1;" parent="j-Y8bRtDtjEa4uRJ_ZTw-56" vertex="1">
          <mxGeometry y="372" width="526" height="26" as="geometry" />
        </mxCell>
        <mxCell id="LLT-Rgq1CzMtrMIxeCo0-4" value="+&amp;nbsp;DiscardTile(IMahjongTile): PlayerInfo&lt;br&gt;&amp;nbsp;" style="text;strokeColor=none;fillColor=none;align=left;verticalAlign=top;spacingLeft=4;spacingRight=4;overflow=hidden;rotatable=0;points=[[0,0.5],[1,0.5]];portConstraint=eastwest;whiteSpace=wrap;html=1;" vertex="1" parent="j-Y8bRtDtjEa4uRJ_ZTw-56">
          <mxGeometry y="398" width="526" height="26" as="geometry" />
        </mxCell>
        <mxCell id="XQg5VKVALIr8z_BU0Swp-20" value="+ WaitDeclare(): bool&lt;br&gt;&amp;nbsp;" style="text;strokeColor=none;fillColor=none;align=left;verticalAlign=top;spacingLeft=4;spacingRight=4;overflow=hidden;rotatable=0;points=[[0,0.5],[1,0.5]];portConstraint=eastwest;whiteSpace=wrap;html=1;" parent="j-Y8bRtDtjEa4uRJ_ZTw-56" vertex="1">
          <mxGeometry y="424" width="526" height="26" as="geometry" />
        </mxCell>
        <mxCell id="LLT-Rgq1CzMtrMIxeCo0-8" value="+ Declare(PlayerInfo, DeclareType): bool&amp;nbsp;" style="text;strokeColor=none;fillColor=none;align=left;verticalAlign=top;spacingLeft=4;spacingRight=4;overflow=hidden;rotatable=0;points=[[0,0.5],[1,0.5]];portConstraint=eastwest;whiteSpace=wrap;html=1;" vertex="1" parent="j-Y8bRtDtjEa4uRJ_ZTw-56">
          <mxGeometry y="450" width="526" height="26" as="geometry" />
        </mxCell>
        <mxCell id="ie9PUeDw6mzHgXLe_47Y-3" value="+&amp;nbsp;GetScores(int _score) PlayerInfo" style="text;strokeColor=none;fillColor=none;align=left;verticalAlign=top;spacingLeft=4;spacingRight=4;overflow=hidden;rotatable=0;points=[[0,0.5],[1,0.5]];portConstraint=eastwest;whiteSpace=wrap;html=1;" parent="j-Y8bRtDtjEa4uRJ_ZTw-56" vertex="1">
          <mxGeometry y="476" width="526" height="26" as="geometry" />
        </mxCell>
        <mxCell id="XQg5VKVALIr8z_BU0Swp-16" value="+&amp;nbsp;SetScores(int _score) bool" style="text;strokeColor=none;fillColor=none;align=left;verticalAlign=top;spacingLeft=4;spacingRight=4;overflow=hidden;rotatable=0;points=[[0,0.5],[1,0.5]];portConstraint=eastwest;whiteSpace=wrap;html=1;" parent="j-Y8bRtDtjEa4uRJ_ZTw-56" vertex="1">
          <mxGeometry y="502" width="526" height="26" as="geometry" />
        </mxCell>
        <mxCell id="XQg5VKVALIr8z_BU0Swp-17" value="+&amp;nbsp;GetFinalScores() PlayerInfo" style="text;strokeColor=none;fillColor=none;align=left;verticalAlign=top;spacingLeft=4;spacingRight=4;overflow=hidden;rotatable=0;points=[[0,0.5],[1,0.5]];portConstraint=eastwest;whiteSpace=wrap;html=1;" parent="j-Y8bRtDtjEa4uRJ_ZTw-56" vertex="1">
          <mxGeometry y="528" width="526" height="26" as="geometry" />
        </mxCell>
        <mxCell id="6L6V6qCQOdQOiq5EN29G-2" value="+&amp;nbsp;GetWinner() PlayerInfo" style="text;strokeColor=none;fillColor=none;align=left;verticalAlign=top;spacingLeft=4;spacingRight=4;overflow=hidden;rotatable=0;points=[[0,0.5],[1,0.5]];portConstraint=eastwest;whiteSpace=wrap;html=1;" parent="j-Y8bRtDtjEa4uRJ_ZTw-56" vertex="1">
          <mxGeometry y="554" width="526" height="26" as="geometry" />
        </mxCell>
        <mxCell id="j-Y8bRtDtjEa4uRJ_ZTw-63" value="MahjongBoard" style="swimlane;fontStyle=1;align=center;verticalAlign=top;childLayout=stackLayout;horizontal=1;startSize=26;horizontalStack=0;resizeParent=1;resizeParentMax=0;resizeLast=0;collapsible=1;marginBottom=0;whiteSpace=wrap;html=1;" parent="WIyWlLk6GJQsqaUBKTNV-1" vertex="1">
          <mxGeometry x="81" y="288" width="340" height="60" as="geometry" />
        </mxCell>
        <mxCell id="6L6V6qCQOdQOiq5EN29G-37" value="- List:&amp;lt;WindDirection&amp;gt; WindDirectionList" style="text;strokeColor=none;fillColor=none;align=left;verticalAlign=top;spacingLeft=4;spacingRight=4;overflow=hidden;rotatable=0;points=[[0,0.5],[1,0.5]];portConstraint=eastwest;whiteSpace=wrap;html=1;" parent="j-Y8bRtDtjEa4uRJ_ZTw-63" vertex="1">
          <mxGeometry y="26" width="340" height="26" as="geometry" />
        </mxCell>
        <mxCell id="j-Y8bRtDtjEa4uRJ_ZTw-65" value="" style="line;strokeWidth=1;fillColor=none;align=left;verticalAlign=middle;spacingTop=-1;spacingLeft=3;spacingRight=3;rotatable=0;labelPosition=right;points=[];portConstraint=eastwest;strokeColor=inherit;" parent="j-Y8bRtDtjEa4uRJ_ZTw-63" vertex="1">
          <mxGeometry y="52" width="340" height="8" as="geometry" />
        </mxCell>
        <mxCell id="WTQXXki12pfbqeDR_uI0-10" style="edgeStyle=orthogonalEdgeStyle;rounded=0;orthogonalLoop=1;jettySize=auto;html=1;exitX=0.5;exitY=0;exitDx=0;exitDy=0;entryX=0.531;entryY=1.011;entryDx=0;entryDy=0;entryPerimeter=0;dashed=1;" parent="WIyWlLk6GJQsqaUBKTNV-1" source="j-Y8bRtDtjEa4uRJ_ZTw-67" target="j-Y8bRtDtjEa4uRJ_ZTw-75" edge="1">
          <mxGeometry relative="1" as="geometry">
            <mxPoint x="747" y="783" as="targetPoint" />
          </mxGeometry>
        </mxCell>
        <mxCell id="j-Y8bRtDtjEa4uRJ_ZTw-67" value="Interface Iplayer" style="swimlane;fontStyle=1;align=center;verticalAlign=top;childLayout=stackLayout;horizontal=1;startSize=26;horizontalStack=0;resizeParent=1;resizeParentMax=0;resizeLast=0;collapsible=1;marginBottom=0;whiteSpace=wrap;html=1;" parent="WIyWlLk6GJQsqaUBKTNV-1" vertex="1">
          <mxGeometry x="657" y="882" width="180" height="86" as="geometry" />
        </mxCell>
        <mxCell id="j-Y8bRtDtjEa4uRJ_ZTw-68" value="+ int _id" style="text;strokeColor=none;fillColor=none;align=left;verticalAlign=top;spacingLeft=4;spacingRight=4;overflow=hidden;rotatable=0;points=[[0,0.5],[1,0.5]];portConstraint=eastwest;whiteSpace=wrap;html=1;" parent="j-Y8bRtDtjEa4uRJ_ZTw-67" vertex="1">
          <mxGeometry y="26" width="180" height="26" as="geometry" />
        </mxCell>
        <mxCell id="XQg5VKVALIr8z_BU0Swp-9" value="+ string _name" style="text;strokeColor=none;fillColor=none;align=left;verticalAlign=top;spacingLeft=4;spacingRight=4;overflow=hidden;rotatable=0;points=[[0,0.5],[1,0.5]];portConstraint=eastwest;whiteSpace=wrap;html=1;" parent="j-Y8bRtDtjEa4uRJ_ZTw-67" vertex="1">
          <mxGeometry y="52" width="180" height="26" as="geometry" />
        </mxCell>
        <mxCell id="j-Y8bRtDtjEa4uRJ_ZTw-69" value="" style="line;strokeWidth=1;fillColor=none;align=left;verticalAlign=middle;spacingTop=-1;spacingLeft=3;spacingRight=3;rotatable=0;labelPosition=right;points=[];portConstraint=eastwest;strokeColor=inherit;" parent="j-Y8bRtDtjEa4uRJ_ZTw-67" vertex="1">
          <mxGeometry y="78" width="180" height="8" as="geometry" />
        </mxCell>
        <mxCell id="j-Y8bRtDtjEa4uRJ_ZTw-72" value="Player" style="swimlane;fontStyle=1;align=center;verticalAlign=top;childLayout=stackLayout;horizontal=1;startSize=26;horizontalStack=0;resizeParent=1;resizeParentMax=0;resizeLast=0;collapsible=1;marginBottom=0;whiteSpace=wrap;html=1;" parent="WIyWlLk6GJQsqaUBKTNV-1" vertex="1">
          <mxGeometry x="630" y="666" width="220" height="112" as="geometry" />
        </mxCell>
        <mxCell id="j-Y8bRtDtjEa4uRJ_ZTw-74" value="" style="line;strokeWidth=1;fillColor=none;align=left;verticalAlign=middle;spacingTop=-1;spacingLeft=3;spacingRight=3;rotatable=0;labelPosition=right;points=[];portConstraint=eastwest;strokeColor=inherit;" parent="j-Y8bRtDtjEa4uRJ_ZTw-72" vertex="1">
          <mxGeometry y="26" width="220" height="8" as="geometry" />
        </mxCell>
        <mxCell id="XQg5VKVALIr8z_BU0Swp-10" value="+ GetPlayerId(Int Id) int" style="text;strokeColor=none;fillColor=none;align=left;verticalAlign=top;spacingLeft=4;spacingRight=4;overflow=hidden;rotatable=0;points=[[0,0.5],[1,0.5]];portConstraint=eastwest;whiteSpace=wrap;html=1;" parent="j-Y8bRtDtjEa4uRJ_ZTw-72" vertex="1">
          <mxGeometry y="34" width="220" height="26" as="geometry" />
        </mxCell>
        <mxCell id="XQg5VKVALIr8z_BU0Swp-18" value="+ GetPlayerName(string _name) string" style="text;strokeColor=none;fillColor=none;align=left;verticalAlign=top;spacingLeft=4;spacingRight=4;overflow=hidden;rotatable=0;points=[[0,0.5],[1,0.5]];portConstraint=eastwest;whiteSpace=wrap;html=1;" parent="j-Y8bRtDtjEa4uRJ_ZTw-72" vertex="1">
          <mxGeometry y="60" width="220" height="26" as="geometry" />
        </mxCell>
        <mxCell id="j-Y8bRtDtjEa4uRJ_ZTw-75" value="+ SetPlayerName(string _name) bool" style="text;strokeColor=none;fillColor=none;align=left;verticalAlign=top;spacingLeft=4;spacingRight=4;overflow=hidden;rotatable=0;points=[[0,0.5],[1,0.5]];portConstraint=eastwest;whiteSpace=wrap;html=1;" parent="j-Y8bRtDtjEa4uRJ_ZTw-72" vertex="1">
          <mxGeometry y="86" width="220" height="26" as="geometry" />
        </mxCell>
        <mxCell id="j-Y8bRtDtjEa4uRJ_ZTw-76" value="Interface IMahjongTile" style="swimlane;fontStyle=0;childLayout=stackLayout;horizontal=1;startSize=26;fillColor=none;horizontalStack=0;resizeParent=1;resizeParentMax=0;resizeLast=0;collapsible=1;marginBottom=0;whiteSpace=wrap;html=1;" parent="WIyWlLk6GJQsqaUBKTNV-1" vertex="1">
          <mxGeometry x="1181" y="348" width="290" height="52" as="geometry" />
        </mxCell>
        <mxCell id="j-Y8bRtDtjEa4uRJ_ZTw-77" value="+ GetTileName() String" style="text;strokeColor=none;fillColor=none;align=left;verticalAlign=top;spacingLeft=4;spacingRight=4;overflow=hidden;rotatable=0;points=[[0,0.5],[1,0.5]];portConstraint=eastwest;whiteSpace=wrap;html=1;" parent="j-Y8bRtDtjEa4uRJ_ZTw-76" vertex="1">
          <mxGeometry y="26" width="290" height="26" as="geometry" />
        </mxCell>
        <mxCell id="j-Y8bRtDtjEa4uRJ_ZTw-80" value="MahjongTile" style="swimlane;fontStyle=1;align=center;verticalAlign=top;childLayout=stackLayout;horizontal=1;startSize=26;horizontalStack=0;resizeParent=1;resizeParentMax=0;resizeLast=0;collapsible=1;marginBottom=0;whiteSpace=wrap;html=1;" parent="WIyWlLk6GJQsqaUBKTNV-1" vertex="1">
          <mxGeometry x="1181" y="465" width="290" height="126" as="geometry" />
        </mxCell>
        <mxCell id="j-Y8bRtDtjEa4uRJ_ZTw-81" value="- TileType tileType" style="text;strokeColor=none;fillColor=none;align=left;verticalAlign=top;spacingLeft=4;spacingRight=4;overflow=hidden;rotatable=0;points=[[0,0.5],[1,0.5]];portConstraint=eastwest;whiteSpace=wrap;html=1;" parent="j-Y8bRtDtjEa4uRJ_ZTw-80" vertex="1">
          <mxGeometry y="26" width="290" height="26" as="geometry" />
        </mxCell>
        <mxCell id="2utEfWMuSli4GeWRb3pw-10" value="- TileValue tileValue" style="text;strokeColor=none;fillColor=none;align=left;verticalAlign=top;spacingLeft=4;spacingRight=4;overflow=hidden;rotatable=0;points=[[0,0.5],[1,0.5]];portConstraint=eastwest;whiteSpace=wrap;html=1;" parent="j-Y8bRtDtjEa4uRJ_ZTw-80" vertex="1">
          <mxGeometry y="52" width="290" height="26" as="geometry" />
        </mxCell>
        <mxCell id="j-Y8bRtDtjEa4uRJ_ZTw-82" value="" style="line;strokeWidth=1;fillColor=none;align=left;verticalAlign=middle;spacingTop=-1;spacingLeft=3;spacingRight=3;rotatable=0;labelPosition=right;points=[];portConstraint=eastwest;strokeColor=inherit;" parent="j-Y8bRtDtjEa4uRJ_ZTw-80" vertex="1">
          <mxGeometry y="78" width="290" height="8" as="geometry" />
        </mxCell>
        <mxCell id="j-Y8bRtDtjEa4uRJ_ZTw-83" value="+ GetTilename(tileType, tileValue)String" style="text;strokeColor=none;fillColor=none;align=left;verticalAlign=top;spacingLeft=4;spacingRight=4;overflow=hidden;rotatable=0;points=[[0,0.5],[1,0.5]];portConstraint=eastwest;whiteSpace=wrap;html=1;" parent="j-Y8bRtDtjEa4uRJ_ZTw-80" vertex="1">
          <mxGeometry y="86" width="290" height="40" as="geometry" />
        </mxCell>
        <mxCell id="j-Y8bRtDtjEa4uRJ_ZTw-85" value="enum TileType" style="swimlane;fontStyle=0;childLayout=stackLayout;horizontal=1;startSize=26;fillColor=none;horizontalStack=0;resizeParent=1;resizeParentMax=0;resizeLast=0;collapsible=1;marginBottom=0;whiteSpace=wrap;html=1;" parent="WIyWlLk6GJQsqaUBKTNV-1" vertex="1">
          <mxGeometry x="1197" y="666" width="140" height="156" as="geometry" />
        </mxCell>
        <mxCell id="j-Y8bRtDtjEa4uRJ_ZTw-86" value="Bamboo" style="text;strokeColor=none;fillColor=none;align=left;verticalAlign=top;spacingLeft=4;spacingRight=4;overflow=hidden;rotatable=0;points=[[0,0.5],[1,0.5]];portConstraint=eastwest;whiteSpace=wrap;html=1;" parent="j-Y8bRtDtjEa4uRJ_ZTw-85" vertex="1">
          <mxGeometry y="26" width="140" height="26" as="geometry" />
        </mxCell>
        <mxCell id="j-Y8bRtDtjEa4uRJ_ZTw-87" value="Circle" style="text;strokeColor=none;fillColor=none;align=left;verticalAlign=top;spacingLeft=4;spacingRight=4;overflow=hidden;rotatable=0;points=[[0,0.5],[1,0.5]];portConstraint=eastwest;whiteSpace=wrap;html=1;" parent="j-Y8bRtDtjEa4uRJ_ZTw-85" vertex="1">
          <mxGeometry y="52" width="140" height="26" as="geometry" />
        </mxCell>
        <mxCell id="j-Y8bRtDtjEa4uRJ_ZTw-103" value="Character" style="text;strokeColor=none;fillColor=none;align=left;verticalAlign=top;spacingLeft=4;spacingRight=4;overflow=hidden;rotatable=0;points=[[0,0.5],[1,0.5]];portConstraint=eastwest;whiteSpace=wrap;html=1;" parent="j-Y8bRtDtjEa4uRJ_ZTw-85" vertex="1">
          <mxGeometry y="78" width="140" height="26" as="geometry" />
        </mxCell>
        <mxCell id="j-Y8bRtDtjEa4uRJ_ZTw-104" value="Dragon" style="text;strokeColor=none;fillColor=none;align=left;verticalAlign=top;spacingLeft=4;spacingRight=4;overflow=hidden;rotatable=0;points=[[0,0.5],[1,0.5]];portConstraint=eastwest;whiteSpace=wrap;html=1;" parent="j-Y8bRtDtjEa4uRJ_ZTw-85" vertex="1">
          <mxGeometry y="104" width="140" height="26" as="geometry" />
        </mxCell>
        <mxCell id="j-Y8bRtDtjEa4uRJ_ZTw-88" value="Wind" style="text;strokeColor=none;fillColor=none;align=left;verticalAlign=top;spacingLeft=4;spacingRight=4;overflow=hidden;rotatable=0;points=[[0,0.5],[1,0.5]];portConstraint=eastwest;whiteSpace=wrap;html=1;" parent="j-Y8bRtDtjEa4uRJ_ZTw-85" vertex="1">
          <mxGeometry y="130" width="140" height="26" as="geometry" />
        </mxCell>
        <mxCell id="j-Y8bRtDtjEa4uRJ_ZTw-89" value="enum TileValue" style="swimlane;fontStyle=0;childLayout=stackLayout;horizontal=1;startSize=26;fillColor=none;horizontalStack=0;resizeParent=1;resizeParentMax=0;resizeLast=0;collapsible=1;marginBottom=0;whiteSpace=wrap;html=1;" parent="WIyWlLk6GJQsqaUBKTNV-1" vertex="1">
          <mxGeometry x="1359" y="666" width="140" height="442" as="geometry" />
        </mxCell>
        <mxCell id="j-Y8bRtDtjEa4uRJ_ZTw-90" value="One" style="text;strokeColor=none;fillColor=none;align=left;verticalAlign=top;spacingLeft=4;spacingRight=4;overflow=hidden;rotatable=0;points=[[0,0.5],[1,0.5]];portConstraint=eastwest;whiteSpace=wrap;html=1;" parent="j-Y8bRtDtjEa4uRJ_ZTw-89" vertex="1">
          <mxGeometry y="26" width="140" height="26" as="geometry" />
        </mxCell>
        <mxCell id="j-Y8bRtDtjEa4uRJ_ZTw-91" value="Two" style="text;strokeColor=none;fillColor=none;align=left;verticalAlign=top;spacingLeft=4;spacingRight=4;overflow=hidden;rotatable=0;points=[[0,0.5],[1,0.5]];portConstraint=eastwest;whiteSpace=wrap;html=1;" parent="j-Y8bRtDtjEa4uRJ_ZTw-89" vertex="1">
          <mxGeometry y="52" width="140" height="26" as="geometry" />
        </mxCell>
        <mxCell id="j-Y8bRtDtjEa4uRJ_ZTw-105" value="Three" style="text;strokeColor=none;fillColor=none;align=left;verticalAlign=top;spacingLeft=4;spacingRight=4;overflow=hidden;rotatable=0;points=[[0,0.5],[1,0.5]];portConstraint=eastwest;whiteSpace=wrap;html=1;" parent="j-Y8bRtDtjEa4uRJ_ZTw-89" vertex="1">
          <mxGeometry y="78" width="140" height="26" as="geometry" />
        </mxCell>
        <mxCell id="j-Y8bRtDtjEa4uRJ_ZTw-110" value="Four" style="text;strokeColor=none;fillColor=none;align=left;verticalAlign=top;spacingLeft=4;spacingRight=4;overflow=hidden;rotatable=0;points=[[0,0.5],[1,0.5]];portConstraint=eastwest;whiteSpace=wrap;html=1;" parent="j-Y8bRtDtjEa4uRJ_ZTw-89" vertex="1">
          <mxGeometry y="104" width="140" height="26" as="geometry" />
        </mxCell>
        <mxCell id="j-Y8bRtDtjEa4uRJ_ZTw-111" value="Five" style="text;strokeColor=none;fillColor=none;align=left;verticalAlign=top;spacingLeft=4;spacingRight=4;overflow=hidden;rotatable=0;points=[[0,0.5],[1,0.5]];portConstraint=eastwest;whiteSpace=wrap;html=1;" parent="j-Y8bRtDtjEa4uRJ_ZTw-89" vertex="1">
          <mxGeometry y="130" width="140" height="26" as="geometry" />
        </mxCell>
        <mxCell id="j-Y8bRtDtjEa4uRJ_ZTw-109" value="Six" style="text;strokeColor=none;fillColor=none;align=left;verticalAlign=top;spacingLeft=4;spacingRight=4;overflow=hidden;rotatable=0;points=[[0,0.5],[1,0.5]];portConstraint=eastwest;whiteSpace=wrap;html=1;" parent="j-Y8bRtDtjEa4uRJ_ZTw-89" vertex="1">
          <mxGeometry y="156" width="140" height="26" as="geometry" />
        </mxCell>
        <mxCell id="j-Y8bRtDtjEa4uRJ_ZTw-108" value="Seven" style="text;strokeColor=none;fillColor=none;align=left;verticalAlign=top;spacingLeft=4;spacingRight=4;overflow=hidden;rotatable=0;points=[[0,0.5],[1,0.5]];portConstraint=eastwest;whiteSpace=wrap;html=1;" parent="j-Y8bRtDtjEa4uRJ_ZTw-89" vertex="1">
          <mxGeometry y="182" width="140" height="26" as="geometry" />
        </mxCell>
        <mxCell id="j-Y8bRtDtjEa4uRJ_ZTw-107" value="Eight" style="text;strokeColor=none;fillColor=none;align=left;verticalAlign=top;spacingLeft=4;spacingRight=4;overflow=hidden;rotatable=0;points=[[0,0.5],[1,0.5]];portConstraint=eastwest;whiteSpace=wrap;html=1;" parent="j-Y8bRtDtjEa4uRJ_ZTw-89" vertex="1">
          <mxGeometry y="208" width="140" height="26" as="geometry" />
        </mxCell>
        <mxCell id="j-Y8bRtDtjEa4uRJ_ZTw-106" value="Nine" style="text;strokeColor=none;fillColor=none;align=left;verticalAlign=top;spacingLeft=4;spacingRight=4;overflow=hidden;rotatable=0;points=[[0,0.5],[1,0.5]];portConstraint=eastwest;whiteSpace=wrap;html=1;" parent="j-Y8bRtDtjEa4uRJ_ZTw-89" vertex="1">
          <mxGeometry y="234" width="140" height="26" as="geometry" />
        </mxCell>
        <mxCell id="j-Y8bRtDtjEa4uRJ_ZTw-112" value="Red" style="text;strokeColor=none;fillColor=none;align=left;verticalAlign=top;spacingLeft=4;spacingRight=4;overflow=hidden;rotatable=0;points=[[0,0.5],[1,0.5]];portConstraint=eastwest;whiteSpace=wrap;html=1;" parent="j-Y8bRtDtjEa4uRJ_ZTw-89" vertex="1">
          <mxGeometry y="260" width="140" height="26" as="geometry" />
        </mxCell>
        <mxCell id="j-Y8bRtDtjEa4uRJ_ZTw-113" value="Green" style="text;strokeColor=none;fillColor=none;align=left;verticalAlign=top;spacingLeft=4;spacingRight=4;overflow=hidden;rotatable=0;points=[[0,0.5],[1,0.5]];portConstraint=eastwest;whiteSpace=wrap;html=1;" parent="j-Y8bRtDtjEa4uRJ_ZTw-89" vertex="1">
          <mxGeometry y="286" width="140" height="26" as="geometry" />
        </mxCell>
        <mxCell id="j-Y8bRtDtjEa4uRJ_ZTw-114" value="White" style="text;strokeColor=none;fillColor=none;align=left;verticalAlign=top;spacingLeft=4;spacingRight=4;overflow=hidden;rotatable=0;points=[[0,0.5],[1,0.5]];portConstraint=eastwest;whiteSpace=wrap;html=1;" parent="j-Y8bRtDtjEa4uRJ_ZTw-89" vertex="1">
          <mxGeometry y="312" width="140" height="26" as="geometry" />
        </mxCell>
        <mxCell id="j-Y8bRtDtjEa4uRJ_ZTw-117" value="East" style="text;strokeColor=none;fillColor=none;align=left;verticalAlign=top;spacingLeft=4;spacingRight=4;overflow=hidden;rotatable=0;points=[[0,0.5],[1,0.5]];portConstraint=eastwest;whiteSpace=wrap;html=1;" parent="j-Y8bRtDtjEa4uRJ_ZTw-89" vertex="1">
          <mxGeometry y="338" width="140" height="26" as="geometry" />
        </mxCell>
        <mxCell id="j-Y8bRtDtjEa4uRJ_ZTw-116" value="South" style="text;strokeColor=none;fillColor=none;align=left;verticalAlign=top;spacingLeft=4;spacingRight=4;overflow=hidden;rotatable=0;points=[[0,0.5],[1,0.5]];portConstraint=eastwest;whiteSpace=wrap;html=1;" parent="j-Y8bRtDtjEa4uRJ_ZTw-89" vertex="1">
          <mxGeometry y="364" width="140" height="26" as="geometry" />
        </mxCell>
        <mxCell id="j-Y8bRtDtjEa4uRJ_ZTw-115" value="West" style="text;strokeColor=none;fillColor=none;align=left;verticalAlign=top;spacingLeft=4;spacingRight=4;overflow=hidden;rotatable=0;points=[[0,0.5],[1,0.5]];portConstraint=eastwest;whiteSpace=wrap;html=1;" parent="j-Y8bRtDtjEa4uRJ_ZTw-89" vertex="1">
          <mxGeometry y="390" width="140" height="26" as="geometry" />
        </mxCell>
        <mxCell id="j-Y8bRtDtjEa4uRJ_ZTw-92" value="North" style="text;strokeColor=none;fillColor=none;align=left;verticalAlign=top;spacingLeft=4;spacingRight=4;overflow=hidden;rotatable=0;points=[[0,0.5],[1,0.5]];portConstraint=eastwest;whiteSpace=wrap;html=1;" parent="j-Y8bRtDtjEa4uRJ_ZTw-89" vertex="1">
          <mxGeometry y="416" width="140" height="26" as="geometry" />
        </mxCell>
        <mxCell id="6L6V6qCQOdQOiq5EN29G-9" value="enum WindDirection" style="swimlane;fontStyle=0;childLayout=stackLayout;horizontal=1;startSize=26;fillColor=none;horizontalStack=0;resizeParent=1;resizeParentMax=0;resizeLast=0;collapsible=1;marginBottom=0;whiteSpace=wrap;html=1;" parent="WIyWlLk6GJQsqaUBKTNV-1" vertex="1">
          <mxGeometry x="164" y="387" width="140" height="130" as="geometry" />
        </mxCell>
        <mxCell id="6L6V6qCQOdQOiq5EN29G-12" value="East" style="text;strokeColor=none;fillColor=none;align=left;verticalAlign=top;spacingLeft=4;spacingRight=4;overflow=hidden;rotatable=0;points=[[0,0.5],[1,0.5]];portConstraint=eastwest;whiteSpace=wrap;html=1;" parent="6L6V6qCQOdQOiq5EN29G-9" vertex="1">
          <mxGeometry y="26" width="140" height="26" as="geometry" />
        </mxCell>
        <mxCell id="6L6V6qCQOdQOiq5EN29G-11" value="South" style="text;strokeColor=none;fillColor=none;align=left;verticalAlign=top;spacingLeft=4;spacingRight=4;overflow=hidden;rotatable=0;points=[[0,0.5],[1,0.5]];portConstraint=eastwest;whiteSpace=wrap;html=1;" parent="6L6V6qCQOdQOiq5EN29G-9" vertex="1">
          <mxGeometry y="52" width="140" height="26" as="geometry" />
        </mxCell>
        <mxCell id="6L6V6qCQOdQOiq5EN29G-10" value="North" style="text;strokeColor=none;fillColor=none;align=left;verticalAlign=top;spacingLeft=4;spacingRight=4;overflow=hidden;rotatable=0;points=[[0,0.5],[1,0.5]];portConstraint=eastwest;whiteSpace=wrap;html=1;" parent="6L6V6qCQOdQOiq5EN29G-9" vertex="1">
          <mxGeometry y="78" width="140" height="26" as="geometry" />
        </mxCell>
        <mxCell id="6L6V6qCQOdQOiq5EN29G-13" value="West" style="text;strokeColor=none;fillColor=none;align=left;verticalAlign=top;spacingLeft=4;spacingRight=4;overflow=hidden;rotatable=0;points=[[0,0.5],[1,0.5]];portConstraint=eastwest;whiteSpace=wrap;html=1;" parent="6L6V6qCQOdQOiq5EN29G-9" vertex="1">
          <mxGeometry y="104" width="140" height="26" as="geometry" />
        </mxCell>
        <mxCell id="2utEfWMuSli4GeWRb3pw-14" value="" style="endArrow=diamondThin;endFill=1;endSize=24;html=1;rounded=0;exitX=0.5;exitY=0;exitDx=0;exitDy=0;" parent="WIyWlLk6GJQsqaUBKTNV-1" source="j-Y8bRtDtjEa4uRJ_ZTw-63" edge="1">
          <mxGeometry width="160" relative="1" as="geometry">
            <mxPoint x="241" y="252" as="sourcePoint" />
            <mxPoint x="491" y="252" as="targetPoint" />
            <Array as="points">
              <mxPoint x="251" y="252" />
            </Array>
          </mxGeometry>
        </mxCell>
        <mxCell id="2utEfWMuSli4GeWRb3pw-31" value="name" style="endArrow=block;endFill=1;html=1;edgeStyle=orthogonalEdgeStyle;align=left;verticalAlign=top;rounded=0;" parent="WIyWlLk6GJQsqaUBKTNV-1" edge="1">
          <mxGeometry x="-1" relative="1" as="geometry">
            <mxPoint x="-174" y="1211.33" as="sourcePoint" />
            <mxPoint x="-14" y="1211.33" as="targetPoint" />
          </mxGeometry>
        </mxCell>
        <mxCell id="2utEfWMuSli4GeWRb3pw-32" value="1" style="edgeLabel;resizable=0;html=1;align=left;verticalAlign=bottom;" parent="2utEfWMuSli4GeWRb3pw-31" connectable="0" vertex="1">
          <mxGeometry x="-1" relative="1" as="geometry" />
        </mxCell>
        <mxCell id="2utEfWMuSli4GeWRb3pw-33" value="" style="endArrow=block;startArrow=block;endFill=1;startFill=1;html=1;rounded=0;" parent="WIyWlLk6GJQsqaUBKTNV-1" edge="1">
          <mxGeometry width="160" relative="1" as="geometry">
            <mxPoint x="-174" y="1278" as="sourcePoint" />
            <mxPoint x="-14" y="1278" as="targetPoint" />
          </mxGeometry>
        </mxCell>
        <mxCell id="2utEfWMuSli4GeWRb3pw-34" value="Relation" style="text;html=1;strokeColor=none;fillColor=none;align=center;verticalAlign=middle;whiteSpace=wrap;rounded=0;" parent="WIyWlLk6GJQsqaUBKTNV-1" vertex="1">
          <mxGeometry x="-264" y="1197" width="60" height="30" as="geometry" />
        </mxCell>
        <mxCell id="2utEfWMuSli4GeWRb3pw-35" value="Agregation" style="text;html=1;strokeColor=none;fillColor=none;align=center;verticalAlign=middle;whiteSpace=wrap;rounded=0;" parent="WIyWlLk6GJQsqaUBKTNV-1" vertex="1">
          <mxGeometry x="-264" y="1260" width="60" height="30" as="geometry" />
        </mxCell>
        <mxCell id="2utEfWMuSli4GeWRb3pw-36" value="" style="endArrow=diamondThin;endFill=1;endSize=24;html=1;rounded=0;" parent="WIyWlLk6GJQsqaUBKTNV-1" edge="1">
          <mxGeometry width="160" relative="1" as="geometry">
            <mxPoint x="-174" y="1323" as="sourcePoint" />
            <mxPoint x="-14" y="1323" as="targetPoint" />
          </mxGeometry>
        </mxCell>
        <mxCell id="2utEfWMuSli4GeWRb3pw-37" value="Composition" style="text;html=1;strokeColor=none;fillColor=none;align=center;verticalAlign=middle;whiteSpace=wrap;rounded=0;" parent="WIyWlLk6GJQsqaUBKTNV-1" vertex="1">
          <mxGeometry x="-264" y="1314" width="60" height="30" as="geometry" />
        </mxCell>
        <mxCell id="2utEfWMuSli4GeWRb3pw-38" value="" style="endArrow=block;dashed=1;endFill=0;endSize=12;html=1;rounded=0;" parent="WIyWlLk6GJQsqaUBKTNV-1" edge="1">
          <mxGeometry width="160" relative="1" as="geometry">
            <mxPoint x="-174" y="1386" as="sourcePoint" />
            <mxPoint x="-14" y="1386" as="targetPoint" />
          </mxGeometry>
        </mxCell>
        <mxCell id="2utEfWMuSli4GeWRb3pw-39" value="Implementation" style="text;html=1;strokeColor=none;fillColor=none;align=center;verticalAlign=middle;whiteSpace=wrap;rounded=0;" parent="WIyWlLk6GJQsqaUBKTNV-1" vertex="1">
          <mxGeometry x="-264" y="1377" width="60" height="30" as="geometry" />
        </mxCell>
        <mxCell id="2utEfWMuSli4GeWRb3pw-40" value="Extends" style="endArrow=block;endSize=16;endFill=0;html=1;rounded=0;" parent="WIyWlLk6GJQsqaUBKTNV-1" edge="1">
          <mxGeometry width="160" relative="1" as="geometry">
            <mxPoint x="-174" y="1449" as="sourcePoint" />
            <mxPoint x="-14" y="1449" as="targetPoint" />
          </mxGeometry>
        </mxCell>
        <mxCell id="2utEfWMuSli4GeWRb3pw-41" value="Inheritance" style="text;html=1;strokeColor=none;fillColor=none;align=center;verticalAlign=middle;whiteSpace=wrap;rounded=0;" parent="WIyWlLk6GJQsqaUBKTNV-1" vertex="1">
          <mxGeometry x="-270" y="1431" width="60" height="30" as="geometry" />
        </mxCell>
        <mxCell id="2utEfWMuSli4GeWRb3pw-46" value="" style="endArrow=block;startArrow=block;endFill=1;startFill=1;html=1;rounded=0;" parent="WIyWlLk6GJQsqaUBKTNV-1" edge="1">
          <mxGeometry width="160" relative="1" as="geometry">
            <mxPoint x="-174" y="1494" as="sourcePoint" />
            <mxPoint x="-14" y="1494" as="targetPoint" />
          </mxGeometry>
        </mxCell>
        <mxCell id="2utEfWMuSli4GeWRb3pw-47" value="Association" style="text;html=1;strokeColor=none;fillColor=none;align=center;verticalAlign=middle;whiteSpace=wrap;rounded=0;" parent="WIyWlLk6GJQsqaUBKTNV-1" vertex="1">
          <mxGeometry x="-270" y="1477" width="60" height="30" as="geometry" />
        </mxCell>
        <mxCell id="2utEfWMuSli4GeWRb3pw-48" value="" style="endArrow=block;startArrow=block;endFill=1;startFill=1;html=1;rounded=0;entryX=0.514;entryY=-0.003;entryDx=0;entryDy=0;entryPerimeter=0;exitX=0.86;exitY=0.999;exitDx=0;exitDy=0;exitPerimeter=0;" parent="WIyWlLk6GJQsqaUBKTNV-1" source="j-Y8bRtDtjEa4uRJ_ZTw-83" target="j-Y8bRtDtjEa4uRJ_ZTw-89" edge="1">
          <mxGeometry width="160" relative="1" as="geometry">
            <mxPoint x="1431" y="594" as="sourcePoint" />
            <mxPoint x="1645" y="504" as="targetPoint" />
            <Array as="points" />
          </mxGeometry>
        </mxCell>
        <mxCell id="2utEfWMuSli4GeWRb3pw-49" value="" style="endArrow=block;startArrow=block;endFill=1;startFill=1;html=1;rounded=0;exitX=0.295;exitY=0.995;exitDx=0;exitDy=0;entryX=0.5;entryY=0;entryDx=0;entryDy=0;exitPerimeter=0;" parent="WIyWlLk6GJQsqaUBKTNV-1" source="j-Y8bRtDtjEa4uRJ_ZTw-83" target="j-Y8bRtDtjEa4uRJ_ZTw-85" edge="1">
          <mxGeometry width="160" relative="1" as="geometry">
            <mxPoint x="1470" y="540" as="sourcePoint" />
            <mxPoint x="1789" y="612" as="targetPoint" />
            <Array as="points">
              <mxPoint x="1267" y="639" />
            </Array>
          </mxGeometry>
        </mxCell>
        <mxCell id="bTUQG4hRqjsF7mNI0KwY-0" value="" style="endArrow=block;startArrow=block;endFill=1;startFill=1;html=1;rounded=0;exitX=0.5;exitY=0;exitDx=0;exitDy=0;" parent="WIyWlLk6GJQsqaUBKTNV-1" source="6L6V6qCQOdQOiq5EN29G-9" edge="1">
          <mxGeometry width="160" relative="1" as="geometry">
            <mxPoint x="-49" y="391.5" as="sourcePoint" />
            <mxPoint x="234" y="351" as="targetPoint" />
          </mxGeometry>
        </mxCell>
        <mxCell id="bTUQG4hRqjsF7mNI0KwY-4" value="" style="endArrow=diamondThin;endFill=1;endSize=24;html=1;rounded=0;entryX=0.483;entryY=0.981;entryDx=0;entryDy=0;entryPerimeter=0;exitX=0.53;exitY=0.011;exitDx=0;exitDy=0;exitPerimeter=0;" parent="WIyWlLk6GJQsqaUBKTNV-1" source="j-Y8bRtDtjEa4uRJ_ZTw-72" target="6L6V6qCQOdQOiq5EN29G-2" edge="1">
          <mxGeometry width="160" relative="1" as="geometry">
            <mxPoint x="746" y="729" as="sourcePoint" />
            <mxPoint x="746.4260000000002" y="657.6460000000002" as="targetPoint" />
          </mxGeometry>
        </mxCell>
        <mxCell id="ie9PUeDw6mzHgXLe_47Y-6" value="PlayerInfo" style="swimlane;fontStyle=1;align=center;verticalAlign=top;childLayout=stackLayout;horizontal=1;startSize=26;horizontalStack=0;resizeParent=1;resizeParentMax=0;resizeLast=0;collapsible=1;marginBottom=0;whiteSpace=wrap;html=1;" parent="WIyWlLk6GJQsqaUBKTNV-1" vertex="1">
          <mxGeometry x="1107" y="63" width="290" height="242" as="geometry" />
        </mxCell>
        <mxCell id="2utEfWMuSli4GeWRb3pw-12" value="+ List: &amp;lt;IPlayer&amp;gt; PlayerList" style="text;strokeColor=none;fillColor=none;align=left;verticalAlign=top;spacingLeft=4;spacingRight=4;overflow=hidden;rotatable=0;points=[[0,0.5],[1,0.5]];portConstraint=eastwest;whiteSpace=wrap;html=1;" parent="ie9PUeDw6mzHgXLe_47Y-6" vertex="1">
          <mxGeometry y="26" width="290" height="26" as="geometry" />
        </mxCell>
        <mxCell id="ie9PUeDw6mzHgXLe_47Y-7" value="+ List&amp;lt;IMahjongTile&amp;gt;: PlayerHandsList" style="text;strokeColor=none;fillColor=none;align=left;verticalAlign=top;spacingLeft=4;spacingRight=4;overflow=hidden;rotatable=0;points=[[0,0.5],[1,0.5]];portConstraint=eastwest;whiteSpace=wrap;html=1;" parent="ie9PUeDw6mzHgXLe_47Y-6" vertex="1">
          <mxGeometry y="52" width="290" height="26" as="geometry" />
        </mxCell>
        <mxCell id="WTQXXki12pfbqeDR_uI0-5" value="+ List&amp;lt;IMahjongTile&amp;gt;: PlayerDiscardedList" style="text;strokeColor=none;fillColor=none;align=left;verticalAlign=top;spacingLeft=4;spacingRight=4;overflow=hidden;rotatable=0;points=[[0,0.5],[1,0.5]];portConstraint=eastwest;whiteSpace=wrap;html=1;" parent="ie9PUeDw6mzHgXLe_47Y-6" vertex="1">
          <mxGeometry y="78" width="290" height="26" as="geometry" />
        </mxCell>
        <mxCell id="WTQXXki12pfbqeDR_uI0-6" value="+ List&amp;lt;IMahjongTile&amp;gt;: PlayerDeclaredList" style="text;strokeColor=none;fillColor=none;align=left;verticalAlign=top;spacingLeft=4;spacingRight=4;overflow=hidden;rotatable=0;points=[[0,0.5],[1,0.5]];portConstraint=eastwest;whiteSpace=wrap;html=1;" parent="ie9PUeDw6mzHgXLe_47Y-6" vertex="1">
          <mxGeometry y="104" width="290" height="26" as="geometry" />
        </mxCell>
        <mxCell id="LLT-Rgq1CzMtrMIxeCo0-1" value="+&amp;nbsp;IsDealer(): bool" style="text;strokeColor=none;fillColor=none;align=left;verticalAlign=top;spacingLeft=4;spacingRight=4;overflow=hidden;rotatable=0;points=[[0,0.5],[1,0.5]];portConstraint=eastwest;whiteSpace=wrap;html=1;" vertex="1" parent="ie9PUeDw6mzHgXLe_47Y-6">
          <mxGeometry y="130" width="290" height="26" as="geometry" />
        </mxCell>
        <mxCell id="LLT-Rgq1CzMtrMIxeCo0-6" value="+&amp;nbsp;IsActive(): bool" style="text;strokeColor=none;fillColor=none;align=left;verticalAlign=top;spacingLeft=4;spacingRight=4;overflow=hidden;rotatable=0;points=[[0,0.5],[1,0.5]];portConstraint=eastwest;whiteSpace=wrap;html=1;" vertex="1" parent="ie9PUeDw6mzHgXLe_47Y-6">
          <mxGeometry y="156" width="290" height="26" as="geometry" />
        </mxCell>
        <mxCell id="6L6V6qCQOdQOiq5EN29G-1" value="+&amp;nbsp;CheckYaku(): bool" style="text;strokeColor=none;fillColor=none;align=left;verticalAlign=top;spacingLeft=4;spacingRight=4;overflow=hidden;rotatable=0;points=[[0,0.5],[1,0.5]];portConstraint=eastwest;whiteSpace=wrap;html=1;" parent="ie9PUeDw6mzHgXLe_47Y-6" vertex="1">
          <mxGeometry y="182" width="290" height="26" as="geometry" />
        </mxCell>
        <mxCell id="WTQXXki12pfbqeDR_uI0-12" value="+ score : int" style="text;strokeColor=none;fillColor=none;align=left;verticalAlign=top;spacingLeft=4;spacingRight=4;overflow=hidden;rotatable=0;points=[[0,0.5],[1,0.5]];portConstraint=eastwest;whiteSpace=wrap;html=1;" parent="ie9PUeDw6mzHgXLe_47Y-6" vertex="1">
          <mxGeometry y="208" width="290" height="26" as="geometry" />
        </mxCell>
        <mxCell id="ie9PUeDw6mzHgXLe_47Y-9" value="" style="line;strokeWidth=1;fillColor=none;align=left;verticalAlign=middle;spacingTop=-1;spacingLeft=3;spacingRight=3;rotatable=0;labelPosition=right;points=[];portConstraint=eastwest;strokeColor=inherit;" parent="ie9PUeDw6mzHgXLe_47Y-6" vertex="1">
          <mxGeometry y="234" width="290" height="8" as="geometry" />
        </mxCell>
        <mxCell id="ie9PUeDw6mzHgXLe_47Y-12" value="" style="endArrow=diamondThin;endFill=1;endSize=24;html=1;rounded=0;exitX=-0.011;exitY=0.866;exitDx=0;exitDy=0;exitPerimeter=0;" parent="WIyWlLk6GJQsqaUBKTNV-1" source="j-Y8bRtDtjEa4uRJ_ZTw-81" edge="1">
          <mxGeometry width="160" relative="1" as="geometry">
            <mxPoint x="1125" y="568" as="sourcePoint" />
            <mxPoint x="1017" y="513" as="targetPoint" />
          </mxGeometry>
        </mxCell>
        <mxCell id="ie9PUeDw6mzHgXLe_47Y-2" value="4" style="text;strokeColor=none;fillColor=none;align=left;verticalAlign=top;spacingLeft=4;spacingRight=4;overflow=hidden;rotatable=0;points=[[0,0.5],[1,0.5]];portConstraint=eastwest;whiteSpace=wrap;html=1;" parent="WIyWlLk6GJQsqaUBKTNV-1" vertex="1">
          <mxGeometry x="717" y="603" width="220" height="26" as="geometry" />
        </mxCell>
        <mxCell id="WTQXXki12pfbqeDR_uI0-9" value="" style="endArrow=diamondThin;endFill=1;endSize=24;html=1;rounded=0;exitX=-0.004;exitY=0.781;exitDx=0;exitDy=0;exitPerimeter=0;" parent="WIyWlLk6GJQsqaUBKTNV-1" source="ie9PUeDw6mzHgXLe_47Y-7" edge="1">
          <mxGeometry width="160" relative="1" as="geometry">
            <mxPoint x="1098" y="135" as="sourcePoint" />
            <mxPoint x="1017" y="135" as="targetPoint" />
          </mxGeometry>
        </mxCell>
        <mxCell id="j-Y8bRtDtjEa4uRJ_ZTw-101" style="edgeStyle=orthogonalEdgeStyle;rounded=0;orthogonalLoop=1;jettySize=auto;html=1;exitX=0.501;exitY=0.977;exitDx=0;exitDy=0;entryX=0.5;entryY=0;entryDx=0;entryDy=0;dashed=1;exitPerimeter=0;" parent="WIyWlLk6GJQsqaUBKTNV-1" source="j-Y8bRtDtjEa4uRJ_ZTw-77" target="j-Y8bRtDtjEa4uRJ_ZTw-80" edge="1">
          <mxGeometry relative="1" as="geometry">
            <Array as="points">
              <mxPoint x="1326" y="405" />
              <mxPoint x="1326" y="405" />
            </Array>
          </mxGeometry>
        </mxCell>
        <mxCell id="DDKXHMUxZggkJp9sNRcn-3" value="Abstract Scoring" style="swimlane;fontStyle=1;align=center;verticalAlign=top;childLayout=stackLayout;horizontal=1;startSize=26;horizontalStack=0;resizeParent=1;resizeParentMax=0;resizeLast=0;collapsible=1;marginBottom=0;whiteSpace=wrap;html=1;" parent="WIyWlLk6GJQsqaUBKTNV-1" vertex="1">
          <mxGeometry x="64" y="90" width="340" height="60" as="geometry" />
        </mxCell>
        <mxCell id="DDKXHMUxZggkJp9sNRcn-4" value="- List:&amp;lt;WindDirection&amp;gt; WindDirectionList" style="text;strokeColor=none;fillColor=none;align=left;verticalAlign=top;spacingLeft=4;spacingRight=4;overflow=hidden;rotatable=0;points=[[0,0.5],[1,0.5]];portConstraint=eastwest;whiteSpace=wrap;html=1;" parent="DDKXHMUxZggkJp9sNRcn-3" vertex="1">
          <mxGeometry y="26" width="340" height="26" as="geometry" />
        </mxCell>
        <mxCell id="DDKXHMUxZggkJp9sNRcn-5" value="" style="line;strokeWidth=1;fillColor=none;align=left;verticalAlign=middle;spacingTop=-1;spacingLeft=3;spacingRight=3;rotatable=0;labelPosition=right;points=[];portConstraint=eastwest;strokeColor=inherit;" parent="DDKXHMUxZggkJp9sNRcn-3" vertex="1">
          <mxGeometry y="52" width="340" height="8" as="geometry" />
        </mxCell>
        <mxCell id="DDKXHMUxZggkJp9sNRcn-6" value="1Han" style="swimlane;fontStyle=1;align=center;verticalAlign=top;childLayout=stackLayout;horizontal=1;startSize=26;horizontalStack=0;resizeParent=1;resizeParentMax=0;resizeLast=0;collapsible=1;marginBottom=0;whiteSpace=wrap;html=1;" parent="WIyWlLk6GJQsqaUBKTNV-1" vertex="1">
          <mxGeometry x="-466" y="-86" width="340" height="242" as="geometry" />
        </mxCell>
        <mxCell id="DDKXHMUxZggkJp9sNRcn-8" value="" style="line;strokeWidth=1;fillColor=none;align=left;verticalAlign=middle;spacingTop=-1;spacingLeft=3;spacingRight=3;rotatable=0;labelPosition=right;points=[];portConstraint=eastwest;strokeColor=inherit;" parent="DDKXHMUxZggkJp9sNRcn-6" vertex="1">
          <mxGeometry y="26" width="340" height="8" as="geometry" />
        </mxCell>
        <mxCell id="DDKXHMUxZggkJp9sNRcn-21" value="- IsRiichi()" style="text;strokeColor=none;fillColor=none;align=left;verticalAlign=top;spacingLeft=4;spacingRight=4;overflow=hidden;rotatable=0;points=[[0,0.5],[1,0.5]];portConstraint=eastwest;whiteSpace=wrap;html=1;" parent="DDKXHMUxZggkJp9sNRcn-6" vertex="1">
          <mxGeometry y="34" width="340" height="26" as="geometry" />
        </mxCell>
        <mxCell id="DDKXHMUxZggkJp9sNRcn-29" value="- MenzenTsumo()" style="text;strokeColor=none;fillColor=none;align=left;verticalAlign=top;spacingLeft=4;spacingRight=4;overflow=hidden;rotatable=0;points=[[0,0.5],[1,0.5]];portConstraint=eastwest;whiteSpace=wrap;html=1;" parent="DDKXHMUxZggkJp9sNRcn-6" vertex="1">
          <mxGeometry y="60" width="340" height="26" as="geometry" />
        </mxCell>
        <mxCell id="DDKXHMUxZggkJp9sNRcn-30" value="- Ippatsu()" style="text;strokeColor=none;fillColor=none;align=left;verticalAlign=top;spacingLeft=4;spacingRight=4;overflow=hidden;rotatable=0;points=[[0,0.5],[1,0.5]];portConstraint=eastwest;whiteSpace=wrap;html=1;" parent="DDKXHMUxZggkJp9sNRcn-6" vertex="1">
          <mxGeometry y="86" width="340" height="26" as="geometry" />
        </mxCell>
        <mxCell id="DDKXHMUxZggkJp9sNRcn-31" value="- Tanyao()" style="text;strokeColor=none;fillColor=none;align=left;verticalAlign=top;spacingLeft=4;spacingRight=4;overflow=hidden;rotatable=0;points=[[0,0.5],[1,0.5]];portConstraint=eastwest;whiteSpace=wrap;html=1;" parent="DDKXHMUxZggkJp9sNRcn-6" vertex="1">
          <mxGeometry y="112" width="340" height="26" as="geometry" />
        </mxCell>
        <mxCell id="DDKXHMUxZggkJp9sNRcn-32" value="- PinFu()" style="text;strokeColor=none;fillColor=none;align=left;verticalAlign=top;spacingLeft=4;spacingRight=4;overflow=hidden;rotatable=0;points=[[0,0.5],[1,0.5]];portConstraint=eastwest;whiteSpace=wrap;html=1;" parent="DDKXHMUxZggkJp9sNRcn-6" vertex="1">
          <mxGeometry y="138" width="340" height="26" as="geometry" />
        </mxCell>
        <mxCell id="DDKXHMUxZggkJp9sNRcn-33" value="- PureDoubleChii()" style="text;strokeColor=none;fillColor=none;align=left;verticalAlign=top;spacingLeft=4;spacingRight=4;overflow=hidden;rotatable=0;points=[[0,0.5],[1,0.5]];portConstraint=eastwest;whiteSpace=wrap;html=1;" parent="DDKXHMUxZggkJp9sNRcn-6" vertex="1">
          <mxGeometry y="164" width="340" height="26" as="geometry" />
        </mxCell>
        <mxCell id="DDKXHMUxZggkJp9sNRcn-34" value="- DragonWindTriplet()" style="text;strokeColor=none;fillColor=none;align=left;verticalAlign=top;spacingLeft=4;spacingRight=4;overflow=hidden;rotatable=0;points=[[0,0.5],[1,0.5]];portConstraint=eastwest;whiteSpace=wrap;html=1;" parent="DDKXHMUxZggkJp9sNRcn-6" vertex="1">
          <mxGeometry y="190" width="340" height="26" as="geometry" />
        </mxCell>
        <mxCell id="DDKXHMUxZggkJp9sNRcn-35" value="- RoundWindTriplet()" style="text;strokeColor=none;fillColor=none;align=left;verticalAlign=top;spacingLeft=4;spacingRight=4;overflow=hidden;rotatable=0;points=[[0,0.5],[1,0.5]];portConstraint=eastwest;whiteSpace=wrap;html=1;" parent="DDKXHMUxZggkJp9sNRcn-6" vertex="1">
          <mxGeometry y="216" width="340" height="26" as="geometry" />
        </mxCell>
        <mxCell id="DDKXHMUxZggkJp9sNRcn-9" value="2Han" style="swimlane;fontStyle=1;align=center;verticalAlign=top;childLayout=stackLayout;horizontal=1;startSize=26;horizontalStack=0;resizeParent=1;resizeParentMax=0;resizeLast=0;collapsible=1;marginBottom=0;whiteSpace=wrap;html=1;" parent="WIyWlLk6GJQsqaUBKTNV-1" vertex="1">
          <mxGeometry x="-469" y="216" width="342" height="268" as="geometry" />
        </mxCell>
        <mxCell id="DDKXHMUxZggkJp9sNRcn-11" value="" style="line;strokeWidth=1;fillColor=none;align=left;verticalAlign=middle;spacingTop=-1;spacingLeft=3;spacingRight=3;rotatable=0;labelPosition=right;points=[];portConstraint=eastwest;strokeColor=inherit;" parent="DDKXHMUxZggkJp9sNRcn-9" vertex="1">
          <mxGeometry y="26" width="342" height="8" as="geometry" />
        </mxCell>
        <mxCell id="DDKXHMUxZggkJp9sNRcn-36" value="- SevenPairs(): bool" style="text;strokeColor=none;fillColor=none;align=left;verticalAlign=top;spacingLeft=4;spacingRight=4;overflow=hidden;rotatable=0;points=[[0,0.5],[1,0.5]];portConstraint=eastwest;whiteSpace=wrap;html=1;" parent="DDKXHMUxZggkJp9sNRcn-9" vertex="1">
          <mxGeometry y="34" width="342" height="26" as="geometry" />
        </mxCell>
        <mxCell id="DDKXHMUxZggkJp9sNRcn-37" value="- TripleChi(): bool" style="text;strokeColor=none;fillColor=none;align=left;verticalAlign=top;spacingLeft=4;spacingRight=4;overflow=hidden;rotatable=0;points=[[0,0.5],[1,0.5]];portConstraint=eastwest;whiteSpace=wrap;html=1;" parent="DDKXHMUxZggkJp9sNRcn-9" vertex="1">
          <mxGeometry y="60" width="342" height="26" as="geometry" />
        </mxCell>
        <mxCell id="DDKXHMUxZggkJp9sNRcn-38" value="- PureStraight(): bool" style="text;strokeColor=none;fillColor=none;align=left;verticalAlign=top;spacingLeft=4;spacingRight=4;overflow=hidden;rotatable=0;points=[[0,0.5],[1,0.5]];portConstraint=eastwest;whiteSpace=wrap;html=1;" parent="DDKXHMUxZggkJp9sNRcn-9" vertex="1">
          <mxGeometry y="86" width="342" height="26" as="geometry" />
        </mxCell>
        <mxCell id="DDKXHMUxZggkJp9sNRcn-39" value="- OutsideHand(): bool" style="text;strokeColor=none;fillColor=none;align=left;verticalAlign=top;spacingLeft=4;spacingRight=4;overflow=hidden;rotatable=0;points=[[0,0.5],[1,0.5]];portConstraint=eastwest;whiteSpace=wrap;html=1;" parent="DDKXHMUxZggkJp9sNRcn-9" vertex="1">
          <mxGeometry y="112" width="342" height="26" as="geometry" />
        </mxCell>
        <mxCell id="DDKXHMUxZggkJp9sNRcn-40" value="- TriplePon(): bool" style="text;strokeColor=none;fillColor=none;align=left;verticalAlign=top;spacingLeft=4;spacingRight=4;overflow=hidden;rotatable=0;points=[[0,0.5],[1,0.5]];portConstraint=eastwest;whiteSpace=wrap;html=1;" parent="DDKXHMUxZggkJp9sNRcn-9" vertex="1">
          <mxGeometry y="138" width="342" height="26" as="geometry" />
        </mxCell>
        <mxCell id="DDKXHMUxZggkJp9sNRcn-41" value="- TripleConcealedPon(): bool" style="text;strokeColor=none;fillColor=none;align=left;verticalAlign=top;spacingLeft=4;spacingRight=4;overflow=hidden;rotatable=0;points=[[0,0.5],[1,0.5]];portConstraint=eastwest;whiteSpace=wrap;html=1;" parent="DDKXHMUxZggkJp9sNRcn-9" vertex="1">
          <mxGeometry y="164" width="342" height="26" as="geometry" />
        </mxCell>
        <mxCell id="DDKXHMUxZggkJp9sNRcn-42" value="- ThreeKan(): bool" style="text;strokeColor=none;fillColor=none;align=left;verticalAlign=top;spacingLeft=4;spacingRight=4;overflow=hidden;rotatable=0;points=[[0,0.5],[1,0.5]];portConstraint=eastwest;whiteSpace=wrap;html=1;" parent="DDKXHMUxZggkJp9sNRcn-9" vertex="1">
          <mxGeometry y="190" width="342" height="26" as="geometry" />
        </mxCell>
        <mxCell id="DDKXHMUxZggkJp9sNRcn-43" value="- AllTerminalAndHonors(): bool" style="text;strokeColor=none;fillColor=none;align=left;verticalAlign=top;spacingLeft=4;spacingRight=4;overflow=hidden;rotatable=0;points=[[0,0.5],[1,0.5]];portConstraint=eastwest;whiteSpace=wrap;html=1;" parent="DDKXHMUxZggkJp9sNRcn-9" vertex="1">
          <mxGeometry y="216" width="342" height="26" as="geometry" />
        </mxCell>
        <mxCell id="DDKXHMUxZggkJp9sNRcn-44" value="- LittleThreeDragons(): bool" style="text;strokeColor=none;fillColor=none;align=left;verticalAlign=top;spacingLeft=4;spacingRight=4;overflow=hidden;rotatable=0;points=[[0,0.5],[1,0.5]];portConstraint=eastwest;whiteSpace=wrap;html=1;" parent="DDKXHMUxZggkJp9sNRcn-9" vertex="1">
          <mxGeometry y="242" width="342" height="26" as="geometry" />
        </mxCell>
        <mxCell id="DDKXHMUxZggkJp9sNRcn-23" value="&lt;a href=&quot;https://www.reddit.com/r/Mahjong/comments/aeisu4/riichi_mahjongdoman_mahjong_yaku_reference/?rdt=42150&quot;&gt;Riichi Mahjong/Doman Mahjong Yaku Reference : Mahjong (reddit.com)&lt;/a&gt;" style="text;html=1;strokeColor=none;fillColor=none;align=center;verticalAlign=middle;whiteSpace=wrap;rounded=0;" parent="WIyWlLk6GJQsqaUBKTNV-1" vertex="1">
          <mxGeometry x="6" y="-86" width="456" height="30" as="geometry" />
        </mxCell>
        <mxCell id="DDKXHMUxZggkJp9sNRcn-24" style="edgeStyle=orthogonalEdgeStyle;rounded=0;orthogonalLoop=1;jettySize=auto;html=1;exitX=1;exitY=0.5;exitDx=0;exitDy=0;entryX=-0.003;entryY=0.205;entryDx=0;entryDy=0;entryPerimeter=0;" parent="WIyWlLk6GJQsqaUBKTNV-1" target="DDKXHMUxZggkJp9sNRcn-4" edge="1">
          <mxGeometry relative="1" as="geometry">
            <mxPoint x="-126" y="-47" as="sourcePoint" />
          </mxGeometry>
        </mxCell>
        <mxCell id="DDKXHMUxZggkJp9sNRcn-25" style="edgeStyle=orthogonalEdgeStyle;rounded=0;orthogonalLoop=1;jettySize=auto;html=1;exitX=1;exitY=0.5;exitDx=0;exitDy=0;entryX=0;entryY=0.5;entryDx=0;entryDy=0;" parent="WIyWlLk6GJQsqaUBKTNV-1" target="DDKXHMUxZggkJp9sNRcn-4" edge="1">
          <mxGeometry relative="1" as="geometry">
            <mxPoint x="-127" y="323.42" as="sourcePoint" />
            <mxPoint x="60.98000000000002" y="162.00799999999998" as="targetPoint" />
            <Array as="points">
              <mxPoint x="-27" y="323" />
              <mxPoint x="-27" y="129" />
            </Array>
          </mxGeometry>
        </mxCell>
        <mxCell id="DDKXHMUxZggkJp9sNRcn-26" style="edgeStyle=orthogonalEdgeStyle;rounded=0;orthogonalLoop=1;jettySize=auto;html=1;exitX=1;exitY=0.5;exitDx=0;exitDy=0;entryX=-0.008;entryY=0.239;entryDx=0;entryDy=0;entryPerimeter=0;" parent="WIyWlLk6GJQsqaUBKTNV-1" source="DDKXHMUxZggkJp9sNRcn-13" target="DDKXHMUxZggkJp9sNRcn-4" edge="1">
          <mxGeometry relative="1" as="geometry" />
        </mxCell>
        <mxCell id="DDKXHMUxZggkJp9sNRcn-27" style="edgeStyle=orthogonalEdgeStyle;rounded=0;orthogonalLoop=1;jettySize=auto;html=1;exitX=1;exitY=0.5;exitDx=0;exitDy=0;entryX=-0.003;entryY=0.171;entryDx=0;entryDy=0;entryPerimeter=0;" parent="WIyWlLk6GJQsqaUBKTNV-1" source="DDKXHMUxZggkJp9sNRcn-16" target="DDKXHMUxZggkJp9sNRcn-4" edge="1">
          <mxGeometry relative="1" as="geometry" />
        </mxCell>
        <mxCell id="DDKXHMUxZggkJp9sNRcn-28" style="edgeStyle=orthogonalEdgeStyle;rounded=0;orthogonalLoop=1;jettySize=auto;html=1;exitX=1;exitY=0.5;exitDx=0;exitDy=0;entryX=-0.011;entryY=0.205;entryDx=0;entryDy=0;entryPerimeter=0;" parent="WIyWlLk6GJQsqaUBKTNV-1" source="DDKXHMUxZggkJp9sNRcn-19" target="DDKXHMUxZggkJp9sNRcn-4" edge="1">
          <mxGeometry relative="1" as="geometry" />
        </mxCell>
        <mxCell id="DDKXHMUxZggkJp9sNRcn-12" value="3Han" style="swimlane;fontStyle=1;align=center;verticalAlign=top;childLayout=stackLayout;horizontal=1;startSize=26;horizontalStack=0;resizeParent=1;resizeParentMax=0;resizeLast=0;collapsible=1;marginBottom=0;whiteSpace=wrap;html=1;" parent="WIyWlLk6GJQsqaUBKTNV-1" vertex="1">
          <mxGeometry x="-469" y="517" width="340" height="138" as="geometry" />
        </mxCell>
        <mxCell id="DDKXHMUxZggkJp9sNRcn-13" value="- List:&amp;lt;WindDirection&amp;gt; WindDirectionList" style="text;strokeColor=none;fillColor=none;align=left;verticalAlign=top;spacingLeft=4;spacingRight=4;overflow=hidden;rotatable=0;points=[[0,0.5],[1,0.5]];portConstraint=eastwest;whiteSpace=wrap;html=1;" parent="DDKXHMUxZggkJp9sNRcn-12" vertex="1">
          <mxGeometry y="26" width="340" height="26" as="geometry" />
        </mxCell>
        <mxCell id="DDKXHMUxZggkJp9sNRcn-14" value="" style="line;strokeWidth=1;fillColor=none;align=left;verticalAlign=middle;spacingTop=-1;spacingLeft=3;spacingRight=3;rotatable=0;labelPosition=right;points=[];portConstraint=eastwest;strokeColor=inherit;" parent="DDKXHMUxZggkJp9sNRcn-12" vertex="1">
          <mxGeometry y="52" width="340" height="8" as="geometry" />
        </mxCell>
        <mxCell id="DDKXHMUxZggkJp9sNRcn-45" value="- TwicePureDoubleChi(): bool" style="text;strokeColor=none;fillColor=none;align=left;verticalAlign=top;spacingLeft=4;spacingRight=4;overflow=hidden;rotatable=0;points=[[0,0.5],[1,0.5]];portConstraint=eastwest;whiteSpace=wrap;html=1;" parent="DDKXHMUxZggkJp9sNRcn-12" vertex="1">
          <mxGeometry y="60" width="340" height="26" as="geometry" />
        </mxCell>
        <mxCell id="DDKXHMUxZggkJp9sNRcn-46" value="- HalfFlush(): bool" style="text;strokeColor=none;fillColor=none;align=left;verticalAlign=top;spacingLeft=4;spacingRight=4;overflow=hidden;rotatable=0;points=[[0,0.5],[1,0.5]];portConstraint=eastwest;whiteSpace=wrap;html=1;" parent="DDKXHMUxZggkJp9sNRcn-12" vertex="1">
          <mxGeometry y="86" width="340" height="26" as="geometry" />
        </mxCell>
        <mxCell id="DDKXHMUxZggkJp9sNRcn-47" value="- TerminalsInAllGroups(): bool" style="text;strokeColor=none;fillColor=none;align=left;verticalAlign=top;spacingLeft=4;spacingRight=4;overflow=hidden;rotatable=0;points=[[0,0.5],[1,0.5]];portConstraint=eastwest;whiteSpace=wrap;html=1;" parent="DDKXHMUxZggkJp9sNRcn-12" vertex="1">
          <mxGeometry y="112" width="340" height="26" as="geometry" />
        </mxCell>
        <mxCell id="DDKXHMUxZggkJp9sNRcn-15" value="6Han" style="swimlane;fontStyle=1;align=center;verticalAlign=top;childLayout=stackLayout;horizontal=1;startSize=26;horizontalStack=0;resizeParent=1;resizeParentMax=0;resizeLast=0;collapsible=1;marginBottom=0;whiteSpace=wrap;html=1;" parent="WIyWlLk6GJQsqaUBKTNV-1" vertex="1">
          <mxGeometry x="-469" y="692" width="340" height="60" as="geometry" />
        </mxCell>
        <mxCell id="DDKXHMUxZggkJp9sNRcn-17" value="" style="line;strokeWidth=1;fillColor=none;align=left;verticalAlign=middle;spacingTop=-1;spacingLeft=3;spacingRight=3;rotatable=0;labelPosition=right;points=[];portConstraint=eastwest;strokeColor=inherit;" parent="DDKXHMUxZggkJp9sNRcn-15" vertex="1">
          <mxGeometry y="26" width="340" height="8" as="geometry" />
        </mxCell>
        <mxCell id="DDKXHMUxZggkJp9sNRcn-16" value="- FullFlush(): bool" style="text;strokeColor=none;fillColor=none;align=left;verticalAlign=top;spacingLeft=4;spacingRight=4;overflow=hidden;rotatable=0;points=[[0,0.5],[1,0.5]];portConstraint=eastwest;whiteSpace=wrap;html=1;" parent="DDKXHMUxZggkJp9sNRcn-15" vertex="1">
          <mxGeometry y="34" width="340" height="26" as="geometry" />
        </mxCell>
        <mxCell id="DDKXHMUxZggkJp9sNRcn-18" value="Yakuman" style="swimlane;fontStyle=1;align=center;verticalAlign=top;childLayout=stackLayout;horizontal=1;startSize=26;horizontalStack=0;resizeParent=1;resizeParentMax=0;resizeLast=0;collapsible=1;marginBottom=0;whiteSpace=wrap;html=1;" parent="WIyWlLk6GJQsqaUBKTNV-1" vertex="1">
          <mxGeometry x="-469" y="792" width="340" height="346" as="geometry" />
        </mxCell>
        <mxCell id="DDKXHMUxZggkJp9sNRcn-20" value="" style="line;strokeWidth=1;fillColor=none;align=left;verticalAlign=middle;spacingTop=-1;spacingLeft=3;spacingRight=3;rotatable=0;labelPosition=right;points=[];portConstraint=eastwest;strokeColor=inherit;" parent="DDKXHMUxZggkJp9sNRcn-18" vertex="1">
          <mxGeometry y="26" width="340" height="8" as="geometry" />
        </mxCell>
        <mxCell id="DDKXHMUxZggkJp9sNRcn-19" value="- BlessingOfHeaven(): bool" style="text;strokeColor=none;fillColor=none;align=left;verticalAlign=top;spacingLeft=4;spacingRight=4;overflow=hidden;rotatable=0;points=[[0,0.5],[1,0.5]];portConstraint=eastwest;whiteSpace=wrap;html=1;" parent="DDKXHMUxZggkJp9sNRcn-18" vertex="1">
          <mxGeometry y="34" width="340" height="26" as="geometry" />
        </mxCell>
        <mxCell id="DDKXHMUxZggkJp9sNRcn-48" value="- FourConcealedPon(): bool" style="text;strokeColor=none;fillColor=none;align=left;verticalAlign=top;spacingLeft=4;spacingRight=4;overflow=hidden;rotatable=0;points=[[0,0.5],[1,0.5]];portConstraint=eastwest;whiteSpace=wrap;html=1;" parent="DDKXHMUxZggkJp9sNRcn-18" vertex="1">
          <mxGeometry y="60" width="340" height="26" as="geometry" />
        </mxCell>
        <mxCell id="DDKXHMUxZggkJp9sNRcn-49" value="- FourKan(): bool" style="text;strokeColor=none;fillColor=none;align=left;verticalAlign=top;spacingLeft=4;spacingRight=4;overflow=hidden;rotatable=0;points=[[0,0.5],[1,0.5]];portConstraint=eastwest;whiteSpace=wrap;html=1;" parent="DDKXHMUxZggkJp9sNRcn-18" vertex="1">
          <mxGeometry y="86" width="340" height="26" as="geometry" />
        </mxCell>
        <mxCell id="DDKXHMUxZggkJp9sNRcn-50" value="- BigThreeDragons(): bool" style="text;strokeColor=none;fillColor=none;align=left;verticalAlign=top;spacingLeft=4;spacingRight=4;overflow=hidden;rotatable=0;points=[[0,0.5],[1,0.5]];portConstraint=eastwest;whiteSpace=wrap;html=1;" parent="DDKXHMUxZggkJp9sNRcn-18" vertex="1">
          <mxGeometry y="112" width="340" height="26" as="geometry" />
        </mxCell>
        <mxCell id="DDKXHMUxZggkJp9sNRcn-51" value="- LittleFourWinds(): bool" style="text;strokeColor=none;fillColor=none;align=left;verticalAlign=top;spacingLeft=4;spacingRight=4;overflow=hidden;rotatable=0;points=[[0,0.5],[1,0.5]];portConstraint=eastwest;whiteSpace=wrap;html=1;" parent="DDKXHMUxZggkJp9sNRcn-18" vertex="1">
          <mxGeometry y="138" width="340" height="26" as="geometry" />
        </mxCell>
        <mxCell id="DDKXHMUxZggkJp9sNRcn-52" value="- BigFourWinds(): bool" style="text;strokeColor=none;fillColor=none;align=left;verticalAlign=top;spacingLeft=4;spacingRight=4;overflow=hidden;rotatable=0;points=[[0,0.5],[1,0.5]];portConstraint=eastwest;whiteSpace=wrap;html=1;" parent="DDKXHMUxZggkJp9sNRcn-18" vertex="1">
          <mxGeometry y="164" width="340" height="26" as="geometry" />
        </mxCell>
        <mxCell id="DDKXHMUxZggkJp9sNRcn-53" value="- BlessingOfEarth(): bool" style="text;strokeColor=none;fillColor=none;align=left;verticalAlign=top;spacingLeft=4;spacingRight=4;overflow=hidden;rotatable=0;points=[[0,0.5],[1,0.5]];portConstraint=eastwest;whiteSpace=wrap;html=1;" parent="DDKXHMUxZggkJp9sNRcn-18" vertex="1">
          <mxGeometry y="190" width="340" height="26" as="geometry" />
        </mxCell>
        <mxCell id="DDKXHMUxZggkJp9sNRcn-54" value="- ThirteensOrphan(): bool" style="text;strokeColor=none;fillColor=none;align=left;verticalAlign=top;spacingLeft=4;spacingRight=4;overflow=hidden;rotatable=0;points=[[0,0.5],[1,0.5]];portConstraint=eastwest;whiteSpace=wrap;html=1;" parent="DDKXHMUxZggkJp9sNRcn-18" vertex="1">
          <mxGeometry y="216" width="340" height="26" as="geometry" />
        </mxCell>
        <mxCell id="DDKXHMUxZggkJp9sNRcn-56" value="- AllHonors(): bool" style="text;strokeColor=none;fillColor=none;align=left;verticalAlign=top;spacingLeft=4;spacingRight=4;overflow=hidden;rotatable=0;points=[[0,0.5],[1,0.5]];portConstraint=eastwest;whiteSpace=wrap;html=1;" parent="DDKXHMUxZggkJp9sNRcn-18" vertex="1">
          <mxGeometry y="242" width="340" height="26" as="geometry" />
        </mxCell>
        <mxCell id="DDKXHMUxZggkJp9sNRcn-55" value="- AllTerminals(): bool" style="text;strokeColor=none;fillColor=none;align=left;verticalAlign=top;spacingLeft=4;spacingRight=4;overflow=hidden;rotatable=0;points=[[0,0.5],[1,0.5]];portConstraint=eastwest;whiteSpace=wrap;html=1;" parent="DDKXHMUxZggkJp9sNRcn-18" vertex="1">
          <mxGeometry y="268" width="340" height="26" as="geometry" />
        </mxCell>
        <mxCell id="DDKXHMUxZggkJp9sNRcn-57" value="- AllGreen(): bool" style="text;strokeColor=none;fillColor=none;align=left;verticalAlign=top;spacingLeft=4;spacingRight=4;overflow=hidden;rotatable=0;points=[[0,0.5],[1,0.5]];portConstraint=eastwest;whiteSpace=wrap;html=1;" parent="DDKXHMUxZggkJp9sNRcn-18" vertex="1">
          <mxGeometry y="294" width="340" height="26" as="geometry" />
        </mxCell>
        <mxCell id="DDKXHMUxZggkJp9sNRcn-58" value="- NineGates(): bool" style="text;strokeColor=none;fillColor=none;align=left;verticalAlign=top;spacingLeft=4;spacingRight=4;overflow=hidden;rotatable=0;points=[[0,0.5],[1,0.5]];portConstraint=eastwest;whiteSpace=wrap;html=1;" parent="DDKXHMUxZggkJp9sNRcn-18" vertex="1">
          <mxGeometry y="320" width="340" height="26" as="geometry" />
        </mxCell>
        <mxCell id="LLT-Rgq1CzMtrMIxeCo0-0" value="Exclude" style="text;html=1;strokeColor=none;fillColor=none;align=center;verticalAlign=middle;whiteSpace=wrap;rounded=0;" vertex="1" parent="WIyWlLk6GJQsqaUBKTNV-1">
          <mxGeometry x="570" y="603" width="60" height="30" as="geometry" />
        </mxCell>
        <mxCell id="LLT-Rgq1CzMtrMIxeCo0-27" value="enum DeclareType" style="swimlane;fontStyle=0;childLayout=stackLayout;horizontal=1;startSize=26;fillColor=none;horizontalStack=0;resizeParent=1;resizeParentMax=0;resizeLast=0;collapsible=1;marginBottom=0;whiteSpace=wrap;html=1;" vertex="1" parent="WIyWlLk6GJQsqaUBKTNV-1">
          <mxGeometry x="270" y="633" width="140" height="130" as="geometry" />
        </mxCell>
        <mxCell id="XQg5VKVALIr8z_BU0Swp-23" value="Quad" style="text;strokeColor=none;fillColor=none;align=left;verticalAlign=top;spacingLeft=4;spacingRight=4;overflow=hidden;rotatable=0;points=[[0,0.5],[1,0.5]];portConstraint=eastwest;whiteSpace=wrap;html=1;" parent="LLT-Rgq1CzMtrMIxeCo0-27" vertex="1">
          <mxGeometry y="26" width="140" height="26" as="geometry" />
        </mxCell>
        <mxCell id="XQg5VKVALIr8z_BU0Swp-19" value="Triplet" style="text;strokeColor=none;fillColor=none;align=left;verticalAlign=top;spacingLeft=4;spacingRight=4;overflow=hidden;rotatable=0;points=[[0,0.5],[1,0.5]];portConstraint=eastwest;whiteSpace=wrap;html=1;" parent="LLT-Rgq1CzMtrMIxeCo0-27" vertex="1">
          <mxGeometry y="52" width="140" height="26" as="geometry" />
        </mxCell>
        <mxCell id="6L6V6qCQOdQOiq5EN29G-0" value="Sequence" style="text;strokeColor=none;fillColor=none;align=left;verticalAlign=top;spacingLeft=4;spacingRight=4;overflow=hidden;rotatable=0;points=[[0,0.5],[1,0.5]];portConstraint=eastwest;whiteSpace=wrap;html=1;" parent="LLT-Rgq1CzMtrMIxeCo0-27" vertex="1">
          <mxGeometry y="78" width="140" height="26" as="geometry" />
        </mxCell>
        <mxCell id="LLT-Rgq1CzMtrMIxeCo0-32" value="Hand" style="text;strokeColor=none;fillColor=none;align=left;verticalAlign=top;spacingLeft=4;spacingRight=4;overflow=hidden;rotatable=0;points=[[0,0.5],[1,0.5]];portConstraint=eastwest;whiteSpace=wrap;html=1;" vertex="1" parent="LLT-Rgq1CzMtrMIxeCo0-27">
          <mxGeometry y="104" width="140" height="26" as="geometry" />
        </mxCell>
        <mxCell id="LLT-Rgq1CzMtrMIxeCo0-33" value="" style="endArrow=block;startArrow=block;endFill=1;startFill=1;html=1;rounded=0;entryX=0.5;entryY=0;entryDx=0;entryDy=0;exitX=0;exitY=0.5;exitDx=0;exitDy=0;" edge="1" parent="WIyWlLk6GJQsqaUBKTNV-1" source="XQg5VKVALIr8z_BU0Swp-16">
          <mxGeometry width="160" relative="1" as="geometry">
            <mxPoint x="341" y="468" as="sourcePoint" />
            <mxPoint x="339.29" y="633" as="targetPoint" />
            <Array as="points">
              <mxPoint x="342" y="540" />
            </Array>
          </mxGeometry>
        </mxCell>
      </root>
    </mxGraphModel>
  </diagram>
</mxfile>
